<svg id="Layer_1" xmlns="http://www.w3.org/2000/svg" viewBox="0 0 578.8 170.1"><style>.st0{fill:#fff}</style><path class="st0" d="M69.5 72.5c-.1 0-1.2-.1-2.4-.1-6.2 0-10 2.9-12 6.4v29.6H42.5V62.7h12v7.1h.2c1.8-4.1 5.1-8 14.9-8v10.7zM91.1 99.8c5.6 0 8-2.6 9-3.7v-6.6s-2.8-.1-5.7-.1c-6.5 0-9.6 1.8-9.6 5.3.1 3.2 2.2 5.1 6.3 5.1m1.8-18.2c3.9 0 7.1.3 7.1.3v-.7c0-6.2-2.8-9.2-9.5-9.2-6.4 0-10.4 3.1-12.3 5l-5.1-7.8c2.8-2.9 8.4-7.6 19.1-7.6 14.2 0 20.1 7.5 20.1 20v26.9h-11.6v-4.8h-.2c-1.3 1.9-4.4 5.9-13.4 5.9-9.3 0-14.4-5.1-14.4-13.3.1-9.6 8-14.7 20.2-14.7M140.4 98.8c5.5 0 7.9-2.7 9.1-4.3V76.7c-1.3-1.6-3.7-4.4-9-4.4-5.9 0-10.6 4.2-10.6 13.3.1 9.3 4.5 13.2 10.5 13.2m21.7 9.6h-12v-4.8h-.2c-1.2 1.7-4.5 5.9-13.4 5.9-11.5 0-19.5-7.7-19.5-24 0-15.7 9.2-24 20.1-24 7.7 0 10.9 4 12.2 5.5h.2V42.5H162v65.9zM169.5 42.5H182v65.9h-12.5zM199.4 80.9h18.3c-.1-5.6-2.7-9.1-8.5-9.1-5.1 0-9 3.4-9.8 9.1m9.7-19.3c13.1 0 20 7.6 20 23v4.3h-29.6c.8 6.9 4.8 10.3 12.6 10.3 7.4 0 11.2-3.1 12.8-4.4l4.1 8.3c-2.3 2.1-7.3 6.5-18.2 6.5-14.3 0-23.7-7.7-23.7-24.5 0-15.5 9.9-23.5 22-23.5"/><path class="st0" d="M259 103.9c-7.6 18.7-12.2 23.7-29.9 23.7v-10.9c10.4 0 14.1-3.3 16.9-10.5l-18.2-43.5h13.5l11 29.4h.2l10.4-29.4h13L259 103.9zM321.3 103.9c-7.6 18.7-12.2 23.7-29.9 23.7v-10.9c10.4 0 14.1-3.3 16.9-10.5l-18.2-43.5h13.5l11 29.4h.2l10.4-29.4h13l-16.9 41.2zM348.6 80.9h18.3c-.1-5.6-2.7-9.1-8.5-9.1-5.2 0-9.1 3.4-9.8 9.1m9.7-19.3c13.1 0 20 7.6 20 23v4.3h-29.6c.8 6.9 4.8 10.3 12.6 10.3 7.4 0 11.2-3.1 12.8-4.4l4.1 8.3c-2.3 2.1-7.3 6.5-18.2 6.5-14.3 0-23.7-7.7-23.7-24.5 0-15.5 9.9-23.5 22-23.5M383.9 42.5h12.5v65.9h-12.5z"/><g><path class="st0" d="M425.1 98.8c5.5 0 7.9-2.7 9.1-4.3V76.7c-1.3-1.6-3.7-4.4-9-4.4-5.9 0-10.6 4.2-10.6 13.3 0 9.3 4.5 13.2 10.5 13.2m21.7 9.6h-12v-4.8h-.2c-1.2 1.7-4.5 5.9-13.4 5.9-11.5 0-19.5-7.7-19.5-24 0-15.7 9.2-24 20.1-24 7.7 0 10.9 4 12.2 5.5h.2V42.5h12.5v65.9zM470.2 99.8c5.6 0 8-2.6 9-3.7v-6.6s-2.8-.1-5.7-.1c-6.5 0-9.6 1.8-9.6 5.3.1 3.2 2.2 5.1 6.3 5.1m1.9-18.2c3.9 0 7.1.3 7.1.3v-.7c0-6.2-2.8-9.2-9.5-9.2-6.4 0-10.4 3.1-12.3 5l-5.1-7.8c2.8-2.9 8.4-7.6 19.1-7.6 14.2 0 20.1 7.5 20.1 20v26.9h-11.6v-4.8h-.2c-1.3 1.9-4.4 5.9-13.4 5.9-9.3 0-14.4-5.1-14.4-13.3 0-9.6 7.9-14.7 20.2-14.7M525.4 72.5c-.1 0-1.2-.1-2.4-.1-6.2 0-10 2.9-12 6.4v29.6h-12.6V62.7h12v7.1h.2c1.8-4.1 5.1-8 14.9-8v10.7z"/></g><path class="st0" d="M523.1 95.6h13.2v12.8h-13.2z"/></svg>